<svg id="Capa_1" data-name="Capa 1" xmlns="http://www.w3.org/2000/svg" xmlns:xlink="http://www.w3.org/1999/xlink" viewBox="0 0 32 32"><defs><style>.cls-1{fill:#dbad4b;}.cls-2{fill:#0d4b8d;}.cls-3{fill:#4d863b;}.cls-4{fill:url(#Degradado_sin_nombre_56);}.cls-5{fill:url(#Degradado_sin_nombre_56-2);}</style><linearGradient id="Degradado_sin_nombre_56" x1="19.43" y1="18.5" x2="29.68" y2="18.5" gradientUnits="userSpaceOnUse"><stop offset="0" stop-color="#b21f16"/><stop offset="1" stop-color="#b21f16"/></linearGradient><linearGradient id="Degradado_sin_nombre_56-2" x1="25.97" y1="22.94" x2="29.61" y2="22.94" xlink:href="#Degradado_sin_nombre_56"/></defs><title>elementos web</title><polygon class="cls-1" points="21.13 7.14 21.13 9.12 17.71 7.14 16 8.13 10.87 5.17 7.45 7.14 5.74 6.16 10.87 3.19 16 6.15 17.71 5.17 21.13 7.14"/><polygon class="cls-2" points="10.87 7.14 12.57 8.13 9.16 10.1 9.16 12.07 4.03 15.04 4.03 18.99 2.32 19.98 2.32 14.05 7.44 11.09 7.44 9.12 10.87 7.14"/><circle class="cls-1" cx="16.01" cy="2.32" r="1.82"/><circle class="cls-2" cx="4.16" cy="9.16" r="1.82"/><circle class="cls-2" cx="27.53" cy="8.53" r="1.82"/><polygon class="cls-3" points="5.74 16.03 7.45 15.04 7.45 18.99 9.16 19.98 9.16 25.9 12.58 27.88 12.58 29.85 7.45 26.89 7.45 20.97 5.74 19.98 5.74 16.03"/><polygon class="cls-2" points="10.88 24.92 10.88 22.95 14.3 24.92 16.01 23.93 21.14 26.89 24.56 24.92 26.27 25.91 21.14 28.87 16.01 25.91 14.3 26.89 10.88 24.92"/><circle class="cls-3" cx="4.15" cy="22.83" r="1.82"/><circle class="cls-2" cx="16.01" cy="29.68" r="1.82"/><polygon class="cls-4" points="21.13 24.92 19.43 23.93 22.84 21.96 22.84 19.99 27.97 17.02 27.97 13.07 29.68 12.08 29.68 18.01 24.56 20.97 24.56 22.94 21.13 24.92"/><polygon class="cls-2" points="26.27 16.04 24.56 17.02 24.56 13.08 22.85 12.09 22.85 6.16 19.43 4.19 19.43 2.21 24.56 5.18 24.56 11.1 26.27 12.08 26.27 16.04"/><circle class="cls-5" cx="27.79" cy="22.94" r="1.82"/></svg>