<svg id="Capa_1" data-name="Capa 1" xmlns="http://www.w3.org/2000/svg" viewBox="0 0 130 32"><defs><style>.cls-1{fill:#fff;}</style></defs><title>elementos web</title><polygon class="cls-1" points="20.49 7.29 20.49 9.19 17.18 7.28 15.53 8.24 10.56 5.37 7.25 7.29 5.59 6.33 10.56 3.46 15.52 6.33 17.18 5.37 20.49 7.29"/><polygon class="cls-1" points="10.55 7.28 12.21 8.24 8.9 10.15 8.9 12.06 3.94 14.92 3.94 18.75 2.28 19.7 2.28 13.97 7.24 11.1 7.24 9.2 10.55 7.28"/><circle class="cls-1" cx="15.53" cy="2.62" r="1.76"/><circle class="cls-1" cx="4.06" cy="9.23" r="1.76"/><circle class="cls-1" cx="26.68" cy="8.62" r="1.76"/><polygon class="cls-1" points="5.59 15.88 7.25 14.93 7.25 18.75 8.9 19.7 8.9 25.44 12.21 27.35 12.21 29.26 7.25 26.39 7.25 20.66 5.59 19.71 5.59 15.88"/><polygon class="cls-1" points="10.57 24.49 10.57 22.58 13.88 24.49 15.53 23.53 20.5 26.4 23.81 24.49 25.46 25.44 20.5 28.31 15.54 25.45 13.88 26.4 10.57 24.49"/><circle class="cls-1" cx="4.05" cy="22.47" r="1.76"/><circle class="cls-1" cx="15.53" cy="29.1" r="1.76"/><polygon class="cls-1" points="20.49 24.49 18.84 23.53 22.15 21.62 22.15 19.71 27.11 16.85 27.11 13.02 28.77 12.07 28.77 17.8 23.8 20.67 23.8 22.57 20.49 24.49"/><polygon class="cls-1" points="25.46 15.89 23.81 16.84 23.81 13.03 22.16 12.07 22.16 6.34 18.84 4.42 18.84 2.51 23.81 5.38 23.81 11.11 25.46 12.07 25.46 15.89"/><circle class="cls-1" cx="26.93" cy="22.57" r="1.76"/><path class="cls-1" d="M37,19.85v-8h6.5v1.29H38.73v2h4.41v1.3H38.73v2.1h5v1.29Z"/><path class="cls-1" d="M50.05,19.85l-3.6-6.15a12.85,12.85,0,0,1,.1,1.44v4.71H45v-8h2l3.66,6.19a13,13,0,0,1-.11-1.55V11.87h1.54v8Z"/><path class="cls-1" d="M53.69,19.85v-8h1.73v6.69h4.44v1.29Z"/><path class="cls-1" d="M66.87,19.85l-.73-2H63l-.73,2H60.53l3-8h2l3,8ZM64.56,13.1l0,.12c0,.14-.09.29-.14.47s-.39,1.13-1,2.86h2.37l-.81-2.29-.25-.77Z"/><path class="cls-1" d="M73.57,18.65a2.18,2.18,0,0,0,2.17-1.52l1.51.55a3.51,3.51,0,0,1-1.43,1.72,4.34,4.34,0,0,1-2.25.56,4.18,4.18,0,0,1-3.09-1.09,4.15,4.15,0,0,1-1.08-3.05,4.11,4.11,0,0,1,1-3,4.11,4.11,0,0,1,3-1.05,4.52,4.52,0,0,1,2.37.56A3,3,0,0,1,77.15,14l-1.53.4a1.69,1.69,0,0,0-.76-.95,2.43,2.43,0,0,0-1.33-.36,2.21,2.21,0,0,0-1.78.71,3,3,0,0,0-.61,2.05,3.15,3.15,0,0,0,.62,2.1A2.25,2.25,0,0,0,73.57,18.65Z"/><path class="cls-1" d="M78.38,19.85v-8h6.5v1.29H80.12v2h4.41v1.3H80.12v2.1h5v1.29Z"/><path class="cls-1" d="M96.48,17.55a2,2,0,0,1-.9,1.79,4.69,4.69,0,0,1-2.65.62,4.84,4.84,0,0,1-2.49-.54,2.48,2.48,0,0,1-1.16-1.65L91,17.5a1.43,1.43,0,0,0,.66.92,2.76,2.76,0,0,0,1.37.29c1.21,0,1.81-.36,1.81-1.07a.83.83,0,0,0-.2-.56,1.6,1.6,0,0,0-.59-.36,9.8,9.8,0,0,0-1.45-.36A11.68,11.68,0,0,1,91.26,16a2.87,2.87,0,0,1-.66-.3,1.83,1.83,0,0,1-.5-.41,1.92,1.92,0,0,1-.32-.58,2.15,2.15,0,0,1-.11-.75,1.9,1.9,0,0,1,.84-1.66A4.37,4.37,0,0,1,93,11.75a4.6,4.6,0,0,1,2.31.46,2.24,2.24,0,0,1,1,1.54L94.58,14a1.27,1.27,0,0,0-.52-.78,2.11,2.11,0,0,0-1.14-.26c-1,0-1.57.32-1.57,1a.77.77,0,0,0,.17.51,1.16,1.16,0,0,0,.49.34,9.36,9.36,0,0,0,1.33.35,10.3,10.3,0,0,1,1.71.45,2.8,2.8,0,0,1,.81.48,1.83,1.83,0,0,1,.46.66A2.38,2.38,0,0,1,96.48,17.55Z"/><path class="cls-1" d="M97.75,19.85v-8h1.73v8Z"/><path class="cls-1" d="M105,18.65a4.42,4.42,0,0,0,1.31-.19,2.56,2.56,0,0,0,1-.48V16.87h-2V15.64h3.61v2.93a4.38,4.38,0,0,1-1.71,1A6.57,6.57,0,0,1,105,20a4.23,4.23,0,0,1-3.11-1.08,4.14,4.14,0,0,1-1.08-3.06,4,4,0,0,1,1.09-3A4.35,4.35,0,0,1,105,11.75c1.94,0,3.17.69,3.7,2.08l-1.6.46a1.8,1.8,0,0,0-.81-.91,2.54,2.54,0,0,0-1.29-.32,2.35,2.35,0,0,0-1.86.72,3,3,0,0,0-.63,2,3.08,3.08,0,0,0,.65,2.09A2.31,2.31,0,0,0,105,18.65Z"/><path class="cls-1" d="M117.3,19.85V14.68q0-.16.06-1.41c-.28,1-.49,1.73-.62,2.13l-1.49,4.45H114l-1.49-4.45-.63-2.13c0,.88.07,1.46.07,1.74v4.84h-1.54v-8h2.32l1.48,4.46.13.43.28,1.07.37-1.28,1.52-4.68h2.31v8Z"/><path class="cls-1" d="M126.29,19.85l-.74-2H122.4l-.73,2h-1.73l3-8h2l3,8ZM124,13.1l0,.12c0,.14-.09.29-.14.47s-.39,1.13-1,2.86h2.38l-.82-2.29-.25-.77Z"/></svg>